<svg width="121" height="26" viewBox="0 0 121 26" fill="none" xmlns="http://www.w3.org/2000/svg">
<path d="M1.30078 22.7953C1.30078 23.1937 1.21641 23.5039 1.04766 23.7258C0.878906 23.9461 0.653125 24.0563 0.370313 24.0563C0.239063 24.0563 0.13125 24.0375 0.046875 24V23.6109C0.13125 23.6719 0.240625 23.7023 0.375 23.7023C0.729688 23.7023 0.907031 23.4016 0.907031 22.8V20.6391H1.30078V22.7953ZM3.08381 24.0563C2.72913 24.0563 2.44553 23.9445 2.23303 23.7211C2.02209 23.4961 1.91663 23.1984 1.91663 22.8281C1.91663 22.425 2.02678 22.1102 2.24709 21.8836C2.46741 21.657 2.76506 21.5437 3.14006 21.5437C3.49788 21.5437 3.77678 21.6539 3.97678 21.8742C4.17834 22.0945 4.27913 22.4 4.27913 22.7906C4.27913 23.1734 4.17053 23.4805 3.95334 23.7117C3.73772 23.9414 3.44788 24.0563 3.08381 24.0563ZM3.11194 21.8672C2.86506 21.8672 2.66975 21.9516 2.526 22.1203C2.38225 22.2875 2.31038 22.5187 2.31038 22.8141C2.31038 23.0984 2.38303 23.3227 2.52834 23.4867C2.67366 23.6508 2.86819 23.7328 3.11194 23.7328C3.36038 23.7328 3.551 23.6523 3.68381 23.4914C3.81819 23.3305 3.88538 23.1016 3.88538 22.8047C3.88538 22.5047 3.81819 22.2734 3.68381 22.1109C3.551 21.9484 3.36038 21.8672 3.11194 21.8672ZM6.80981 24H6.42544V23.6203H6.41606C6.25669 23.9109 6.00981 24.0563 5.67544 24.0563C5.10356 24.0563 4.81762 23.7156 4.81762 23.0344V21.6H5.19966V22.9734C5.19966 23.4797 5.39341 23.7328 5.78091 23.7328C5.96841 23.7328 6.12231 23.6641 6.24263 23.5266C6.3645 23.3875 6.42544 23.2062 6.42544 22.9828V21.6H6.80981V24ZM8.8155 21.9891C8.74831 21.9375 8.65144 21.9117 8.52488 21.9117C8.36081 21.9117 8.22331 21.9891 8.11238 22.1437C8.003 22.2984 7.94831 22.5094 7.94831 22.7766V24H7.56394V21.6H7.94831V22.0945H7.95769C8.01238 21.9258 8.09597 21.7945 8.20847 21.7008C8.32097 21.6055 8.44675 21.5578 8.58581 21.5578C8.68581 21.5578 8.76238 21.5687 8.8155 21.5906V21.9891ZM11.2009 24H10.8165V22.6312C10.8165 22.1219 10.6306 21.8672 10.2587 21.8672C10.0665 21.8672 9.90712 21.9398 9.78056 22.0852C9.65556 22.2289 9.59306 22.4109 9.59306 22.6312V24H9.20869V21.6H9.59306V21.9984H9.60244C9.78369 21.6953 10.0462 21.5437 10.3899 21.5437C10.6524 21.5437 10.8532 21.6289 10.9923 21.7992C11.1313 21.968 11.2009 22.2125 11.2009 22.5328V24ZM13.6214 24H13.237V23.625H13.2277C13.0605 23.9125 12.8144 24.0563 12.4894 24.0563C12.2503 24.0563 12.0628 23.993 11.9269 23.8664C11.7925 23.7398 11.7253 23.5719 11.7253 23.3625C11.7253 22.9141 11.9894 22.6531 12.5175 22.5797L13.237 22.4789C13.237 22.0711 13.0722 21.8672 12.7425 21.8672C12.4534 21.8672 12.1925 21.9656 11.9597 22.1625V21.7687C12.1956 21.6187 12.4675 21.5437 12.7753 21.5437C13.3394 21.5437 13.6214 21.8422 13.6214 22.4391V24ZM13.237 22.7859L12.6581 22.8656C12.48 22.8906 12.3456 22.9352 12.255 22.9992C12.1644 23.0617 12.1191 23.1734 12.1191 23.3344C12.1191 23.4516 12.1605 23.5477 12.2433 23.6227C12.3277 23.6961 12.4394 23.7328 12.5784 23.7328C12.7691 23.7328 12.9261 23.6664 13.0495 23.5336C13.1745 23.3992 13.237 23.2297 13.237 23.025V22.7859ZM14.706 24H14.3216V20.4469H14.706V24ZM17.7564 24.0563C17.4018 24.0563 17.1182 23.9445 16.9057 23.7211C16.6947 23.4961 16.5893 23.1984 16.5893 22.8281C16.5893 22.425 16.6994 22.1102 16.9197 21.8836C17.14 21.657 17.4377 21.5437 17.8127 21.5437C18.1705 21.5437 18.4494 21.6539 18.6494 21.8742C18.851 22.0945 18.9518 22.4 18.9518 22.7906C18.9518 23.1734 18.8432 23.4805 18.626 23.7117C18.4103 23.9414 18.1205 24.0563 17.7564 24.0563ZM17.7846 21.8672C17.5377 21.8672 17.3424 21.9516 17.1986 22.1203C17.0549 22.2875 16.983 22.5187 16.983 22.8141C16.983 23.0984 17.0557 23.3227 17.201 23.4867C17.3463 23.6508 17.5408 23.7328 17.7846 23.7328C18.033 23.7328 18.2236 23.6523 18.3564 23.4914C18.4908 23.3305 18.558 23.1016 18.558 22.8047C18.558 22.5047 18.4908 22.2734 18.3564 22.1109C18.2236 21.9484 18.033 21.8672 17.7846 21.8672ZM20.7278 20.7844C20.6528 20.7422 20.5676 20.7211 20.4723 20.7211C20.2035 20.7211 20.0692 20.8906 20.0692 21.2297V21.6H20.6317V21.9281H20.0692V24H19.6871V21.9281H19.277V21.6H19.6871V21.2109C19.6871 20.9594 19.7598 20.7609 19.9051 20.6156C20.0504 20.4687 20.2317 20.3953 20.4488 20.3953C20.566 20.3953 20.659 20.4094 20.7278 20.4375V20.7844ZM25.0766 24H24.5938L22.8641 21.3211C22.8204 21.2539 22.7844 21.1836 22.7563 21.1102H22.7423C22.7548 21.182 22.761 21.3359 22.761 21.5719V24H22.3673V20.6391H22.8782L24.561 23.2758C24.6313 23.3852 24.6766 23.4602 24.6969 23.5008H24.7063C24.6907 23.4039 24.6829 23.2391 24.6829 23.0062V20.6391H25.0766V24ZM27.8112 22.8961H26.1167C26.1229 23.1633 26.1948 23.3695 26.3323 23.5148C26.4698 23.6602 26.6589 23.7328 26.8995 23.7328C27.1698 23.7328 27.4182 23.6437 27.6448 23.4656V23.8266C27.4339 23.9797 27.155 24.0563 26.8081 24.0563C26.469 24.0563 26.2026 23.9477 26.0089 23.7305C25.8151 23.5117 25.7182 23.2047 25.7182 22.8094C25.7182 22.4359 25.8237 22.132 26.0347 21.8977C26.2472 21.6617 26.5104 21.5437 26.8245 21.5437C27.1386 21.5437 27.3815 21.6453 27.5534 21.8484C27.7253 22.0516 27.8112 22.3336 27.8112 22.6945V22.8961ZM27.4175 22.5703C27.4159 22.3484 27.362 22.1758 27.2557 22.0523C27.1511 21.9289 27.005 21.8672 26.8175 21.8672C26.6362 21.8672 26.4823 21.932 26.3557 22.0617C26.2292 22.1914 26.1511 22.3609 26.1214 22.5703H27.4175ZM30.1239 21.6L29.3177 22.8141L30.1099 24H29.6622L29.1911 23.2219C29.1614 23.1734 29.1263 23.1125 29.0857 23.0391H29.0763C29.0685 23.0531 29.0318 23.1141 28.9661 23.2219L28.4857 24H28.0427L28.8607 22.8234L28.0778 21.6H28.5255L28.9896 22.4203C29.0239 22.4812 29.0575 22.5437 29.0903 22.6078H29.0997L29.6997 21.6H30.1239ZM31.6632 23.9766C31.5726 24.0266 31.4531 24.0516 31.3046 24.0516C30.8843 24.0516 30.6742 23.8172 30.6742 23.3484V21.9281H30.2617V21.6H30.6742V21.0141L31.0585 20.8898V21.6H31.6632V21.9281H31.0585V23.2805C31.0585 23.4414 31.0859 23.5562 31.1406 23.625C31.1953 23.6937 31.2859 23.7281 31.4124 23.7281C31.5093 23.7281 31.5929 23.7016 31.6632 23.6484V23.9766ZM33.3806 22.8141H32.1009V22.5117H33.3806V22.8141ZM36.6144 23.7703C36.2769 23.9609 35.9019 24.0563 35.4894 24.0563C35.0097 24.0563 34.6215 23.9016 34.3246 23.5922C34.0293 23.2828 33.8816 22.8734 33.8816 22.3641C33.8816 21.8437 34.0457 21.4172 34.3738 21.0844C34.7035 20.75 35.1207 20.5828 35.6254 20.5828C35.991 20.5828 36.298 20.6422 36.5465 20.7609V21.1969C36.2746 21.025 35.9527 20.9391 35.5808 20.9391C35.2043 20.9391 34.8957 21.0687 34.6551 21.3281C34.4144 21.5875 34.2941 21.9234 34.2941 22.3359C34.2941 22.7609 34.4058 23.0953 34.6293 23.3391C34.8527 23.5812 35.1558 23.7023 35.5387 23.7023C35.8012 23.7023 36.0285 23.65 36.2207 23.5453V22.6031H35.4847V22.2469H36.6144V23.7703ZM39.2506 22.8961H37.5561C37.5623 23.1633 37.6342 23.3695 37.7717 23.5148C37.9092 23.6602 38.0982 23.7328 38.3389 23.7328C38.6092 23.7328 38.8576 23.6437 39.0842 23.4656V23.8266C38.8732 23.9797 38.5943 24.0563 38.2475 24.0563C37.9084 24.0563 37.642 23.9477 37.4482 23.7305C37.2545 23.5117 37.1576 23.2047 37.1576 22.8094C37.1576 22.4359 37.2631 22.132 37.474 21.8977C37.6865 21.6617 37.9498 21.5437 38.2639 21.5437C38.5779 21.5437 38.8209 21.6453 38.9928 21.8484C39.1647 22.0516 39.2506 22.3336 39.2506 22.6945V22.8961ZM38.8568 22.5703C38.8553 22.3484 38.8014 22.1758 38.6951 22.0523C38.5904 21.9289 38.4443 21.8672 38.2568 21.8672C38.0756 21.8672 37.9217 21.932 37.7951 22.0617C37.6686 22.1914 37.5904 22.3609 37.5607 22.5703H38.8568ZM41.8024 24H41.418V22.6312C41.418 22.1219 41.2321 21.8672 40.8602 21.8672C40.668 21.8672 40.5086 21.9398 40.3821 22.0852C40.2571 22.2289 40.1946 22.4109 40.1946 22.6312V24H39.8102V21.6H40.1946V21.9984H40.2039C40.3852 21.6953 40.6477 21.5437 40.9914 21.5437C41.2539 21.5437 41.4547 21.6289 41.5938 21.7992C41.7328 21.968 41.8024 22.2125 41.8024 22.5328V24ZM43.6927 23.8641V23.4C43.7458 23.4469 43.8091 23.4891 43.8825 23.5266C43.9575 23.5641 44.0356 23.5961 44.1169 23.6227C44.1997 23.6477 44.2825 23.6672 44.3653 23.6812C44.4481 23.6953 44.5247 23.7023 44.595 23.7023C44.8372 23.7023 45.0177 23.6578 45.1364 23.5687C45.2567 23.4781 45.3169 23.3484 45.3169 23.1797C45.3169 23.0891 45.2966 23.0102 45.2559 22.943C45.2169 22.8758 45.1622 22.8148 45.0919 22.7602C45.0216 22.7039 44.938 22.6508 44.8411 22.6008C44.7458 22.5492 44.6427 22.4953 44.5317 22.4391C44.4145 22.3797 44.3052 22.3195 44.2036 22.2586C44.102 22.1977 44.0138 22.1305 43.9388 22.057C43.8638 21.9836 43.8044 21.9008 43.7606 21.8086C43.7184 21.7148 43.6973 21.6055 43.6973 21.4805C43.6973 21.3273 43.7309 21.1945 43.7981 21.082C43.8653 20.968 43.9536 20.8742 44.063 20.8008C44.1723 20.7273 44.2966 20.6727 44.4356 20.6367C44.5763 20.6008 44.7192 20.5828 44.8645 20.5828C45.1958 20.5828 45.4372 20.6227 45.5888 20.7023V21.1453C45.3903 21.0078 45.1356 20.9391 44.8247 20.9391C44.7388 20.9391 44.6528 20.9484 44.5669 20.9672C44.4809 20.9844 44.4044 21.0133 44.3372 21.0539C44.27 21.0945 44.2153 21.1469 44.1731 21.2109C44.1309 21.275 44.1098 21.3531 44.1098 21.4453C44.1098 21.5312 44.1255 21.6055 44.1567 21.668C44.1895 21.7305 44.2372 21.7875 44.2997 21.8391C44.3622 21.8906 44.438 21.9406 44.527 21.9891C44.6177 22.0375 44.7216 22.0906 44.8388 22.1484C44.9591 22.2078 45.0731 22.2703 45.1809 22.3359C45.2888 22.4016 45.3833 22.4742 45.4645 22.5539C45.5458 22.6336 45.6098 22.7219 45.6567 22.8187C45.7052 22.9156 45.7294 23.0266 45.7294 23.1516C45.7294 23.3172 45.6966 23.4578 45.6309 23.5734C45.5669 23.6875 45.4794 23.7805 45.3684 23.8523C45.2591 23.9242 45.1325 23.9758 44.9888 24.007C44.845 24.0398 44.6934 24.0563 44.5341 24.0563C44.4809 24.0563 44.4153 24.0516 44.3372 24.0422C44.2591 24.0344 44.1794 24.0219 44.0981 24.0047C44.0169 23.9891 43.9395 23.9695 43.8661 23.9461C43.7942 23.9211 43.7364 23.8937 43.6927 23.8641ZM47.9601 23.8898C47.7757 24.0008 47.5569 24.0563 47.3038 24.0563C46.9616 24.0563 46.6851 23.9453 46.4741 23.7234C46.2647 23.5 46.1601 23.2109 46.1601 22.8562C46.1601 22.4609 46.2733 22.1437 46.4999 21.9047C46.7265 21.6641 47.0288 21.5437 47.4069 21.5437C47.6179 21.5437 47.8038 21.5828 47.9647 21.6609V22.0547C47.7866 21.9297 47.596 21.8672 47.3929 21.8672C47.1476 21.8672 46.946 21.9555 46.7882 22.132C46.6319 22.307 46.5538 22.5375 46.5538 22.8234C46.5538 23.1047 46.6272 23.3266 46.7741 23.4891C46.9226 23.6516 47.121 23.7328 47.3694 23.7328C47.5788 23.7328 47.7757 23.6633 47.9601 23.5242V23.8898ZM48.7142 20.9906C48.6454 20.9906 48.5868 20.9672 48.5384 20.9203C48.49 20.8734 48.4658 20.8141 48.4658 20.7422C48.4658 20.6703 48.49 20.6109 48.5384 20.5641C48.5868 20.5156 48.6454 20.4914 48.7142 20.4914C48.7845 20.4914 48.8439 20.5156 48.8923 20.5641C48.9423 20.6109 48.9673 20.6703 48.9673 20.7422C48.9673 20.8109 48.9423 20.8695 48.8923 20.918C48.8439 20.9664 48.7845 20.9906 48.7142 20.9906ZM48.9017 24H48.5173V21.6H48.9017V24ZM51.5847 22.8961H49.8902C49.8964 23.1633 49.9683 23.3695 50.1058 23.5148C50.2433 23.6602 50.4324 23.7328 50.673 23.7328C50.9433 23.7328 51.1918 23.6437 51.4183 23.4656V23.8266C51.2074 23.9797 50.9285 24.0563 50.5816 24.0563C50.2425 24.0563 49.9761 23.9477 49.7824 23.7305C49.5886 23.5117 49.4918 23.2047 49.4918 22.8094C49.4918 22.4359 49.5972 22.132 49.8082 21.8977C50.0207 21.6617 50.2839 21.5437 50.598 21.5437C50.9121 21.5437 51.155 21.6453 51.3269 21.8484C51.4988 22.0516 51.5847 22.3336 51.5847 22.6945V22.8961ZM51.191 22.5703C51.1894 22.3484 51.1355 22.1758 51.0293 22.0523C50.9246 21.9289 50.7785 21.8672 50.591 21.8672C50.4097 21.8672 50.2558 21.932 50.1293 22.0617C50.0027 22.1914 49.9246 22.3609 49.8949 22.5703H51.191ZM54.1365 24H53.7521V22.6312C53.7521 22.1219 53.5662 21.8672 53.1943 21.8672C53.0021 21.8672 52.8428 21.9398 52.7162 22.0852C52.5912 22.2289 52.5287 22.4109 52.5287 22.6312V24H52.1443V21.6H52.5287V21.9984H52.5381C52.7193 21.6953 52.9818 21.5437 53.3256 21.5437C53.5881 21.5437 53.7888 21.6289 53.9279 21.7992C54.067 21.968 54.1365 22.2125 54.1365 22.5328V24ZM56.475 23.8898C56.2906 24.0008 56.0719 24.0563 55.8188 24.0563C55.4766 24.0563 55.2 23.9453 54.9891 23.7234C54.7797 23.5 54.675 23.2109 54.675 22.8562C54.675 22.4609 54.7883 22.1437 55.0148 21.9047C55.2414 21.6641 55.5438 21.5437 55.9219 21.5437C56.1328 21.5437 56.3188 21.5828 56.4797 21.6609V22.0547C56.3016 21.9297 56.1109 21.8672 55.9078 21.8672C55.6625 21.8672 55.4609 21.9555 55.3031 22.132C55.1469 22.307 55.0688 22.5375 55.0688 22.8234C55.0688 23.1047 55.1422 23.3266 55.2891 23.4891C55.4375 23.6516 55.6359 23.7328 55.8844 23.7328C56.0938 23.7328 56.2906 23.6633 56.475 23.5242V23.8898ZM58.9612 22.8961H57.2666C57.2729 23.1633 57.3448 23.3695 57.4823 23.5148C57.6198 23.6602 57.8088 23.7328 58.0494 23.7328C58.3198 23.7328 58.5682 23.6437 58.7948 23.4656V23.8266C58.5838 23.9797 58.3049 24.0563 57.958 24.0563C57.619 24.0563 57.3526 23.9477 57.1588 23.7305C56.9651 23.5117 56.8682 23.2047 56.8682 22.8094C56.8682 22.4359 56.9737 22.132 57.1846 21.8977C57.3971 21.6617 57.6604 21.5437 57.9744 21.5437C58.2885 21.5437 58.5315 21.6453 58.7033 21.8484C58.8752 22.0516 58.9612 22.3336 58.9612 22.6945V22.8961ZM58.5674 22.5703C58.5658 22.3484 58.5119 22.1758 58.4057 22.0523C58.301 21.9289 58.1549 21.8672 57.9674 21.8672C57.7862 21.8672 57.6323 21.932 57.5057 22.0617C57.3791 22.1914 57.301 22.3609 57.2713 22.5703H58.5674ZM62.5319 24H62.1475V23.625H62.1382C61.971 23.9125 61.7249 24.0563 61.3999 24.0563C61.1608 24.0563 60.9733 23.993 60.8374 23.8664C60.703 23.7398 60.6358 23.5719 60.6358 23.3625C60.6358 22.9141 60.8999 22.6531 61.428 22.5797L62.1475 22.4789C62.1475 22.0711 61.9827 21.8672 61.653 21.8672C61.3639 21.8672 61.103 21.9656 60.8702 22.1625V21.7687C61.1061 21.6187 61.378 21.5437 61.6858 21.5437C62.2499 21.5437 62.5319 21.8422 62.5319 22.4391V24ZM62.1475 22.7859L61.5686 22.8656C61.3905 22.8906 61.2561 22.9352 61.1655 22.9992C61.0749 23.0617 61.0296 23.1734 61.0296 23.3344C61.0296 23.4516 61.071 23.5477 61.1538 23.6227C61.2382 23.6961 61.3499 23.7328 61.4889 23.7328C61.6796 23.7328 61.8366 23.6664 61.96 23.5336C62.085 23.3992 62.1475 23.2297 62.1475 23.025V22.7859ZM65.2243 24H64.8399V22.6312C64.8399 22.1219 64.654 21.8672 64.2821 21.8672C64.0899 21.8672 63.9306 21.9398 63.804 22.0852C63.679 22.2289 63.6165 22.4109 63.6165 22.6312V24H63.2321V21.6H63.6165V21.9984H63.6259C63.8071 21.6953 64.0696 21.5437 64.4134 21.5437C64.6759 21.5437 64.8767 21.6289 65.0157 21.7992C65.1548 21.968 65.2243 22.2125 65.2243 22.5328V24ZM67.9753 24H67.5909V23.5922H67.5816C67.4034 23.9016 67.1284 24.0563 66.7566 24.0563C66.455 24.0563 66.2136 23.9492 66.0323 23.7352C65.8527 23.5195 65.7628 23.2266 65.7628 22.8562C65.7628 22.4594 65.8628 22.1414 66.0628 21.9023C66.2628 21.6633 66.5292 21.5437 66.862 21.5437C67.1917 21.5437 67.4316 21.6734 67.5816 21.9328H67.5909V20.4469H67.9753V24ZM67.5909 22.9148V22.5609C67.5909 22.3672 67.5269 22.2031 67.3987 22.0687C67.2706 21.9344 67.1081 21.8672 66.9112 21.8672C66.6769 21.8672 66.4925 21.9531 66.3581 22.125C66.2237 22.2969 66.1566 22.5344 66.1566 22.8375C66.1566 23.1141 66.2206 23.3328 66.3487 23.4937C66.4784 23.6531 66.6519 23.7328 66.8691 23.7328C67.0831 23.7328 67.2566 23.6555 67.3894 23.5008C67.5237 23.3461 67.5909 23.1508 67.5909 22.9148ZM72.0617 20.9953H71.0914V24H70.6976V20.9953H69.7297V20.6391H72.0617V20.9953ZM73.976 22.8961H72.2814C72.2877 23.1633 72.3596 23.3695 72.4971 23.5148C72.6346 23.6602 72.8236 23.7328 73.0643 23.7328C73.3346 23.7328 73.583 23.6437 73.8096 23.4656V23.8266C73.5986 23.9797 73.3197 24.0563 72.9728 24.0563C72.6338 24.0563 72.3674 23.9477 72.1736 23.7305C71.9799 23.5117 71.883 23.2047 71.883 22.8094C71.883 22.4359 71.9885 22.132 72.1994 21.8977C72.4119 21.6617 72.6752 21.5437 72.9893 21.5437C73.3033 21.5437 73.5463 21.6453 73.7182 21.8484C73.89 22.0516 73.976 22.3336 73.976 22.6945V22.8961ZM73.5822 22.5703C73.5807 22.3484 73.5268 22.1758 73.4205 22.0523C73.3158 21.9289 73.1697 21.8672 72.9822 21.8672C72.801 21.8672 72.6471 21.932 72.5205 22.0617C72.3939 22.1914 72.3158 22.3609 72.2861 22.5703H73.5822ZM76.1715 23.8898C75.9871 24.0008 75.7684 24.0563 75.5152 24.0563C75.1731 24.0563 74.8965 23.9453 74.6856 23.7234C74.4762 23.5 74.3715 23.2109 74.3715 22.8562C74.3715 22.4609 74.4848 22.1437 74.7113 21.9047C74.9379 21.6641 75.2402 21.5437 75.6184 21.5437C75.8293 21.5437 76.0152 21.5828 76.1762 21.6609V22.0547C75.9981 21.9297 75.8074 21.8672 75.6043 21.8672C75.359 21.8672 75.1574 21.9555 74.9996 22.132C74.8434 22.307 74.7652 22.5375 74.7652 22.8234C74.7652 23.1047 74.8387 23.3266 74.9856 23.4891C75.134 23.6516 75.3324 23.7328 75.5809 23.7328C75.7902 23.7328 75.9871 23.6633 76.1715 23.5242V23.8898ZM78.7209 24H78.3366V22.6172C78.3366 22.1172 78.1506 21.8672 77.7788 21.8672C77.5913 21.8672 77.4334 21.9398 77.3053 22.0852C77.1772 22.2289 77.1131 22.4141 77.1131 22.6406V24H76.7288V20.4469H77.1131V21.9984H77.1225C77.3069 21.6953 77.5694 21.5437 77.91 21.5437C78.4506 21.5437 78.7209 21.8695 78.7209 22.5211V24ZM81.4157 24H81.0313V22.6312C81.0313 22.1219 80.8454 21.8672 80.4735 21.8672C80.2813 21.8672 80.1219 21.9398 79.9954 22.0852C79.8704 22.2289 79.8079 22.4109 79.8079 22.6312V24H79.4235V21.6H79.8079V21.9984H79.8173C79.9985 21.6953 80.261 21.5437 80.6048 21.5437C80.8673 21.5437 81.068 21.6289 81.2071 21.7992C81.3462 21.968 81.4157 22.2125 81.4157 22.5328V24ZM83.1214 24.0563C82.7667 24.0563 82.4831 23.9445 82.2706 23.7211C82.0597 23.4961 81.9542 23.1984 81.9542 22.8281C81.9542 22.425 82.0643 22.1102 82.2847 21.8836C82.505 21.657 82.8026 21.5437 83.1776 21.5437C83.5354 21.5437 83.8143 21.6539 84.0143 21.8742C84.2159 22.0945 84.3167 22.4 84.3167 22.7906C84.3167 23.1734 84.2081 23.4805 83.9909 23.7117C83.7753 23.9414 83.4854 24.0563 83.1214 24.0563ZM83.1495 21.8672C82.9026 21.8672 82.7073 21.9516 82.5636 22.1203C82.4198 22.2875 82.3479 22.5187 82.3479 22.8141C82.3479 23.0984 82.4206 23.3227 82.5659 23.4867C82.7112 23.6508 82.9057 23.7328 83.1495 23.7328C83.3979 23.7328 83.5886 23.6523 83.7214 23.4914C83.8557 23.3305 83.9229 23.1016 83.9229 22.8047C83.9229 22.5047 83.8557 22.2734 83.7214 22.1109C83.5886 21.9484 83.3979 21.8672 83.1495 21.8672ZM85.2911 24H84.9068V20.4469H85.2911V24ZM87.0484 24.0563C86.6937 24.0563 86.4101 23.9445 86.1976 23.7211C85.9867 23.4961 85.8812 23.1984 85.8812 22.8281C85.8812 22.425 85.9913 22.1102 86.2117 21.8836C86.432 21.657 86.7296 21.5437 87.1046 21.5437C87.4624 21.5437 87.7413 21.6539 87.9413 21.8742C88.1429 22.0945 88.2437 22.4 88.2437 22.7906C88.2437 23.1734 88.1351 23.4805 87.9179 23.7117C87.7023 23.9414 87.4124 24.0563 87.0484 24.0563ZM87.0765 21.8672C86.8296 21.8672 86.6343 21.9516 86.4906 22.1203C86.3468 22.2875 86.2749 22.5187 86.2749 22.8141C86.2749 23.0984 86.3476 23.3227 86.4929 23.4867C86.6382 23.6508 86.8328 23.7328 87.0765 23.7328C87.3249 23.7328 87.5156 23.6523 87.6484 23.4914C87.7828 23.3305 87.8499 23.1016 87.8499 22.8047C87.8499 22.5047 87.7828 22.2734 87.6484 22.1109C87.5156 21.9484 87.3249 21.8672 87.0765 21.8672ZM90.8822 23.8078C90.8822 24.6891 90.4603 25.1297 89.6166 25.1297C89.3197 25.1297 89.0603 25.0734 88.8384 24.9609V24.5766C89.1087 24.7266 89.3666 24.8016 89.6119 24.8016C90.2025 24.8016 90.4978 24.4875 90.4978 23.8594V23.5969H90.4884C90.3056 23.9031 90.0306 24.0563 89.6634 24.0563C89.365 24.0563 89.1244 23.95 88.9416 23.7375C88.7603 23.5234 88.6697 23.2367 88.6697 22.8773C88.6697 22.4695 88.7673 22.1453 88.9627 21.9047C89.1595 21.6641 89.4283 21.5437 89.7689 21.5437C90.0923 21.5437 90.3322 21.6734 90.4884 21.9328H90.4978V21.6H90.8822V23.8078ZM90.4978 22.9148V22.5609C90.4978 22.3703 90.433 22.207 90.3033 22.0711C90.1752 21.9352 90.015 21.8672 89.8228 21.8672C89.5853 21.8672 89.3994 21.9539 89.265 22.1273C89.1306 22.2992 89.0634 22.5406 89.0634 22.8516C89.0634 23.1187 89.1275 23.3328 89.2556 23.4937C89.3853 23.6531 89.5564 23.7328 89.7689 23.7328C89.9845 23.7328 90.1595 23.6562 90.2939 23.5031C90.4298 23.35 90.4978 23.1539 90.4978 22.9148ZM93.5465 21.6L92.4426 24.3844C92.2457 24.8813 91.9691 25.1297 91.6129 25.1297C91.5129 25.1297 91.4293 25.1195 91.3621 25.0992V24.7547C91.4449 24.7828 91.5207 24.7969 91.5894 24.7969C91.7832 24.7969 91.9285 24.6813 92.0254 24.45L92.2176 23.9953L91.2801 21.6H91.7066L92.3558 23.4469C92.3637 23.4703 92.3801 23.5312 92.4051 23.6297H92.4191C92.4269 23.5922 92.4426 23.5328 92.466 23.4516L93.148 21.6H93.5465ZM97.8836 24H97.4477L97.0914 23.0578H95.6664L95.3313 24H94.893L96.1821 20.6391H96.5899L97.8836 24ZM96.9625 22.7039L96.4352 21.2719C96.418 21.225 96.4008 21.15 96.3836 21.0469H96.3743C96.3586 21.1422 96.3407 21.2172 96.3203 21.2719L95.7977 22.7039H96.9625ZM98.6987 23.6531H98.6893V25.1039H98.3049V21.6H98.6893V22.0219H98.6987C98.8878 21.7031 99.1643 21.5437 99.5284 21.5437C99.8378 21.5437 100.079 21.6516 100.253 21.8672C100.426 22.0812 100.513 22.3687 100.513 22.7297C100.513 23.1312 100.415 23.4531 100.22 23.6953C100.024 23.9359 99.7573 24.0563 99.4182 24.0563C99.1073 24.0563 98.8674 23.9219 98.6987 23.6531ZM98.6893 22.6852V23.0203C98.6893 23.2187 98.7534 23.3875 98.8815 23.5266C99.0112 23.6641 99.1753 23.7328 99.3737 23.7328C99.6065 23.7328 99.7885 23.6437 99.9198 23.4656C100.053 23.2875 100.119 23.0398 100.119 22.7227C100.119 22.4555 100.057 22.2461 99.9338 22.0945C99.8104 21.943 99.6432 21.8672 99.4323 21.8672C99.2088 21.8672 99.0292 21.9453 98.8932 22.1016C98.7573 22.2562 98.6893 22.4508 98.6893 22.6852ZM101.497 23.6531H101.487V25.1039H101.103V21.6H101.487V22.0219H101.497C101.686 21.7031 101.962 21.5437 102.326 21.5437C102.636 21.5437 102.877 21.6516 103.05 21.8672C103.224 22.0812 103.311 22.3687 103.311 22.7297C103.311 23.1312 103.213 23.4531 103.018 23.6953C102.822 23.9359 102.555 24.0563 102.216 24.0563C101.905 24.0563 101.665 23.9219 101.497 23.6531ZM101.487 22.6852V23.0203C101.487 23.2187 101.551 23.3875 101.679 23.5266C101.809 23.6641 101.973 23.7328 102.172 23.7328C102.404 23.7328 102.586 23.6437 102.718 23.4656C102.85 23.2875 102.917 23.0398 102.917 22.7227C102.917 22.4555 102.855 22.2461 102.732 22.0945C102.608 21.943 102.441 21.8672 102.23 21.8672C102.007 21.8672 101.827 21.9453 101.691 22.1016C101.555 22.2562 101.487 22.4508 101.487 22.6852ZM104.285 24H103.901V20.4469H104.285V24ZM105.236 20.9906C105.167 20.9906 105.109 20.9672 105.06 20.9203C105.012 20.8734 104.988 20.8141 104.988 20.7422C104.988 20.6703 105.012 20.6109 105.06 20.5641C105.109 20.5156 105.167 20.4914 105.236 20.4914C105.306 20.4914 105.366 20.5156 105.414 20.5641C105.464 20.6109 105.489 20.6703 105.489 20.7422C105.489 20.8109 105.464 20.8695 105.414 20.918C105.366 20.9664 105.306 20.9906 105.236 20.9906ZM105.424 24H105.039V21.6H105.424V24ZM107.814 23.8898C107.629 24.0008 107.411 24.0563 107.157 24.0563C106.815 24.0563 106.539 23.9453 106.328 23.7234C106.118 23.5 106.014 23.2109 106.014 22.8562C106.014 22.4609 106.127 22.1437 106.353 21.9047C106.58 21.6641 106.882 21.5437 107.261 21.5437C107.471 21.5437 107.657 21.5828 107.818 21.6609V22.0547C107.64 21.9297 107.45 21.8672 107.246 21.8672C107.001 21.8672 106.8 21.9555 106.642 22.132C106.486 22.307 106.407 22.5375 106.407 22.8234C106.407 23.1047 106.481 23.3266 106.628 23.4891C106.776 23.6516 106.975 23.7328 107.223 23.7328C107.432 23.7328 107.629 23.6633 107.814 23.5242V23.8898ZM110.089 24H109.704V23.625H109.695C109.528 23.9125 109.282 24.0563 108.957 24.0563C108.718 24.0563 108.53 23.993 108.394 23.8664C108.26 23.7398 108.193 23.5719 108.193 23.3625C108.193 22.9141 108.457 22.6531 108.985 22.5797L109.704 22.4789C109.704 22.0711 109.54 21.8672 109.21 21.8672C108.921 21.8672 108.66 21.9656 108.427 22.1625V21.7687C108.663 21.6187 108.935 21.5437 109.243 21.5437C109.807 21.5437 110.089 21.8422 110.089 22.4391V24ZM109.704 22.7859L109.126 22.8656C108.947 22.8906 108.813 22.9352 108.722 22.9992C108.632 23.0617 108.586 23.1734 108.586 23.3344C108.586 23.4516 108.628 23.5477 108.711 23.6227C108.795 23.6961 108.907 23.7328 109.046 23.7328C109.236 23.7328 109.394 23.6664 109.517 23.5336C109.642 23.3992 109.704 23.2297 109.704 23.025V22.7859ZM111.902 23.9766C111.812 24.0266 111.692 24.0516 111.544 24.0516C111.123 24.0516 110.913 23.8172 110.913 23.3484V21.9281H110.501V21.6H110.913V21.0141L111.298 20.8898V21.6H111.902V21.9281H111.298V23.2805C111.298 23.4414 111.325 23.5562 111.38 23.625C111.434 23.6937 111.525 23.7281 111.652 23.7281C111.748 23.7281 111.832 23.7016 111.902 23.6484V23.9766ZM112.589 20.9906C112.52 20.9906 112.461 20.9672 112.413 20.9203C112.364 20.8734 112.34 20.8141 112.34 20.7422C112.34 20.6703 112.364 20.6109 112.413 20.5641C112.461 20.5156 112.52 20.4914 112.589 20.4914C112.659 20.4914 112.718 20.5156 112.767 20.5641C112.817 20.6109 112.842 20.6703 112.842 20.7422C112.842 20.8109 112.817 20.8695 112.767 20.918C112.718 20.9664 112.659 20.9906 112.589 20.9906ZM112.776 24H112.392V21.6H112.776V24ZM114.533 24.0563C114.179 24.0563 113.895 23.9445 113.682 23.7211C113.472 23.4961 113.366 23.1984 113.366 22.8281C113.366 22.425 113.476 22.1102 113.697 21.8836C113.917 21.657 114.215 21.5437 114.59 21.5437C114.947 21.5437 115.226 21.6539 115.426 21.8742C115.628 22.0945 115.729 22.4 115.729 22.7906C115.729 23.1734 115.62 23.4805 115.403 23.7117C115.187 23.9414 114.897 24.0563 114.533 24.0563ZM114.561 21.8672C114.315 21.8672 114.119 21.9516 113.975 22.1203C113.832 22.2875 113.76 22.5187 113.76 22.8141C113.76 23.0984 113.832 23.3227 113.978 23.4867C114.123 23.6508 114.318 23.7328 114.561 23.7328C114.81 23.7328 115 23.6523 115.133 23.4914C115.268 23.3305 115.335 23.1016 115.335 22.8047C115.335 22.5047 115.268 22.2734 115.133 22.1109C115 21.9484 114.81 21.8672 114.561 21.8672ZM118.311 24H117.926V22.6312C117.926 22.1219 117.741 21.8672 117.369 21.8672C117.176 21.8672 117.017 21.9398 116.891 22.0852C116.766 22.2289 116.703 22.4109 116.703 22.6312V24H116.319V21.6H116.703V21.9984H116.712C116.894 21.6953 117.156 21.5437 117.5 21.5437C117.762 21.5437 117.963 21.6289 118.102 21.7992C118.241 21.968 118.311 22.2125 118.311 22.5328V24ZM118.868 23.9133V23.5008C119.077 23.6555 119.308 23.7328 119.559 23.7328C119.897 23.7328 120.066 23.6203 120.066 23.3953C120.066 23.3312 120.051 23.2773 120.021 23.2336C119.993 23.1883 119.954 23.1484 119.904 23.1141C119.856 23.0797 119.798 23.0492 119.731 23.0227C119.665 22.9945 119.594 22.9656 119.517 22.9359C119.411 22.8937 119.317 22.8516 119.236 22.8094C119.156 22.7656 119.089 22.7172 119.034 22.6641C118.981 22.6094 118.941 22.5477 118.913 22.4789C118.886 22.4102 118.873 22.3297 118.873 22.2375C118.873 22.125 118.899 22.0258 118.95 21.9398C119.002 21.8523 119.07 21.7797 119.156 21.7219C119.242 21.6625 119.34 21.618 119.449 21.5883C119.56 21.5586 119.674 21.5437 119.792 21.5437C119.999 21.5437 120.185 21.5797 120.349 21.6516V22.0406C120.173 21.925 119.97 21.8672 119.74 21.8672C119.668 21.8672 119.603 21.8758 119.545 21.893C119.488 21.9086 119.438 21.9312 119.395 21.9609C119.355 21.9906 119.323 22.0266 119.299 22.0687C119.277 22.1094 119.267 22.1547 119.267 22.2047C119.267 22.2672 119.277 22.3195 119.299 22.3617C119.323 22.4039 119.356 22.4414 119.4 22.4742C119.444 22.507 119.497 22.5367 119.559 22.5633C119.622 22.5898 119.693 22.6187 119.773 22.65C119.879 22.6906 119.974 22.7328 120.059 22.7766C120.143 22.8187 120.215 22.8672 120.274 22.9219C120.334 22.975 120.379 23.0367 120.41 23.107C120.443 23.1773 120.459 23.2609 120.459 23.3578C120.459 23.4766 120.433 23.5797 120.38 23.6672C120.328 23.7547 120.259 23.8273 120.171 23.8852C120.084 23.943 119.983 23.9859 119.869 24.0141C119.755 24.0422 119.635 24.0563 119.51 24.0563C119.263 24.0563 119.049 24.0086 118.868 23.9133Z" fill="#525252"/>
<path d="M2.82968 18.9011C3.98352 19.3956 5.24725 19.6154 6.67583 19.6154C9.09341 19.6154 10.9341 19.011 12.1978 17.7473C13.4615 16.511 14.0934 14.6429 14.0934 12.1429V0H2.06044V4.2033H8.70879V12.4725C8.70879 13.4066 8.48901 14.0934 8.07692 14.5605C7.66484 15.055 7.06044 15.2747 6.29121 15.2747C5.08242 15.2747 3.98352 14.6154 2.96703 13.2692L0 16.7857C0.714286 17.7198 1.67583 18.4066 2.82968 18.9011Z" fill="#385FB3"/>
<path d="M18.054 19.2308H23.3836V15.989L18.054 9.2033V19.2308ZM31.021 0V3.48901L36.3507 9.91759V0H31.021Z" fill="#385FB3"/>
<path d="M30.967 10.2473L22.478 0H18V2.55495L31.8187 19.2308H36.2967V17.0055L30.967 10.2198V10.2473Z" fill="#F6DD80"/>
<path d="M53.8736 9.58792V14.8626C52.9396 15.3022 51.978 15.4945 50.9341 15.4945C49.8626 15.4945 48.9286 15.2747 48.1044 14.8077C47.2802 14.3407 46.6209 13.6813 46.1813 12.8572C45.7143 12.033 45.4945 11.0714 45.4945 10C45.4945 8.35165 45.989 7.0055 47.0055 6.01649C47.9945 5.02748 49.3407 4.5055 50.989 4.5055C52.8022 4.5055 54.3407 5.21978 55.6593 6.64836L59.1209 3.51649C58.1593 2.39011 56.978 1.51099 55.5495 0.906594C54.1209 0.302198 52.5 0 50.7143 0C48.6539 0 46.8132 0.439562 45.1923 1.29121C43.544 2.14286 42.2802 3.32418 41.3736 4.83517C40.4396 6.37363 40 8.07693 40 10C40 11.9231 40.4396 13.6539 41.3736 15.1648C42.2802 16.7033 43.544 17.8846 45.1648 18.7363C46.7582 19.5879 48.5714 20 50.6044 20C52.033 20 53.4615 19.8077 54.8901 19.3681C56.3187 18.9561 57.5824 18.3517 58.6813 17.555V9.58792H53.8736Z" fill="#385FB3"/>
<path d="M66.5714 19.4231C68.0275 19.8077 69.5385 20 71.1044 20C72.9176 20 74.4835 19.7253 75.7747 19.1758C77.0385 18.6264 78 17.8572 78.6593 16.9231C79.2912 15.989 79.6209 14.9451 79.6209 13.7912C79.6209 12.4725 79.2637 11.4011 78.5494 10.6319C77.8351 9.86264 77.011 9.28572 76.0494 8.92858C75.0879 8.57144 73.8791 8.24176 72.4231 7.91209C71.1044 7.63737 70.1703 7.39012 69.5934 7.11539C68.989 6.86814 68.7143 6.48352 68.7143 5.96154C68.7143 5.46704 68.9615 5.05495 69.456 4.72528C69.9505 4.39561 70.7198 4.23077 71.8187 4.23077C73.522 4.23077 75.3077 4.72528 77.1483 5.71429L78.8242 1.67583C77.8901 1.12638 76.7912 0.714286 75.5824 0.439561C74.3461 0.164835 73.1099 0 71.8461 0C69.978 0 68.4121 0.274725 67.1483 0.824176C65.8846 1.37363 64.9231 2.14286 64.2912 3.07692C63.6319 4.01099 63.3297 5.08242 63.3297 6.23627C63.3297 7.58242 63.6593 8.65385 64.3736 9.42308C65.0604 10.2198 65.8846 10.7967 66.8736 11.1539C67.8352 11.511 69.044 11.8407 70.5 12.1429C71.8187 12.4451 72.7527 12.7198 73.3571 12.9945C73.9615 13.2692 74.2637 13.6539 74.2637 14.2033C74.2637 15.2473 73.2198 15.7692 71.1318 15.7692C70.0329 15.7692 68.9066 15.6044 67.7802 15.2473C66.6264 14.9176 65.6374 14.4506 64.7857 13.8736L63 17.8846C63.9066 18.544 65.0879 19.0385 66.5714 19.4231Z" fill="#385FB3"/>
<path d="M96.6208 0H82.6208V4H96.6208V0Z" fill="#F6DD80"/>
<path d="M87.6208 4V19H91.6208V4H87.6208Z" fill="#F6DD80"/>
<path d="M96.6208 0H82.6208V4H96.6208V0Z" stroke="#F6DD80"/>
<path d="M87.6208 4V19H91.6208V4H87.6208Z" stroke="#F6DD80"/>
<path d="M112.467 0H107.11L98.6208 19.2308H104.17L105.681 15.4945L107.275 11.4835L109.747 5.32968L112.22 11.4835L113.813 15.4945L115.324 19.2308H120.983L112.467 0Z" fill="#385FB3"/>
</svg>
